<?xml version="1.0" standalone="no"?>
<!DOCTYPE svg PUBLIC "-//W3C//DTD SVG 20010904//EN"
 "http://www.w3.org/TR/2001/REC-SVG-20010904/DTD/svg10.dtd">
<svg version="1.0" xmlns="http://www.w3.org/2000/svg"
 width="512.000000pt" height="512.000000pt" viewBox="0 0 512.000000 512.000000"
 preserveAspectRatio="xMidYMid meet">

<g transform="translate(0.000000,512.000000) scale(0.100000,-0.100000)"
fill="#000000" stroke="none">
<path d="M2330 5110 c-494 -48 -950 -230 -1350 -538 -195 -150 -448 -432 -594
-662 -63 -99 -186 -351 -230 -471 -49 -134 -102 -340 -128 -499 -31 -195 -31
-565 0 -760 45 -276 116 -498 237 -745 132 -269 269 -460 489 -681 221 -220
412 -357 681 -489 247 -121 469 -192 745 -237 195 -31 565 -31 760 0 276 45
498 116 745 237 269 132 460 269 681 489 220 221 357 412 489 681 88 179 132
296 180 476 63 240 78 371 78 649 0 278 -15 409 -78 649 -48 180 -92 297 -180
476 -132 269 -269 460 -489 681 -221 220 -412 357 -681 489 -246 121 -474 193
-740 235 -147 23 -475 34 -615 20z m468 -281 c702 -76 1343 -481 1708 -1080
405 -663 444 -1493 105 -2184 -123 -250 -244 -418 -441 -615 -259 -259 -556
-444 -892 -555 -984 -323 -2048 46 -2620 910 -329 496 -451 1107 -338 1691 40
206 107 400 206 594 344 678 1002 1142 1754 1235 131 16 390 18 518 4z"/>
<path d="M1647 3400 c-88 -22 -146 -69 -189 -150 -32 -62 -32 -176 -1 -236 55
-103 138 -156 246 -156 254 0 375 306 187 475 -23 22 -57 45 -74 52 -45 19
-124 26 -169 15z"/>
<path d="M3348 3396 c-171 -47 -254 -239 -173 -396 20 -38 77 -95 115 -115 49
-25 119 -34 179 -23 216 39 300 305 146 462 -69 69 -175 98 -267 72z"/>
<path d="M2385 2169 c-278 -37 -540 -138 -749 -287 -86 -62 -232 -196 -295
-271 l-40 -47 97 -75 c52 -40 102 -78 110 -82 10 -6 35 14 89 72 181 196 439
340 708 396 118 25 328 30 451 11 281 -43 530 -170 737 -379 98 -98 110 -107
127 -95 88 62 189 145 190 156 0 8 -57 71 -127 141 -236 235 -497 375 -823
441 -121 25 -363 35 -475 19z"/>
</g>
</svg>
